<svg width="20" height="20" viewBox="0 0 20 20" fill="none" xmlns="http://www.w3.org/2000/svg">
    <rect width="20" height="20" rx="6" fill="#ECECEC"/>
    <path d="M5.33333 16H14.6667C15.02 15.9989 15.3585 15.8581 15.6083 15.6083C15.8581 15.3585 15.9989 15.02 16 14.6667V8C15.9989 7.6467 15.8581 7.30818 15.6083 7.05836C15.3585 6.80854 15.02 6.66772 14.6667 6.66667H13.3333V5.33333C13.3333 4.97971 13.1929 4.64057 12.9428 4.39052C12.6928 4.14048 12.3536 4 12 4H8C7.64638 4 7.30724 4.14048 7.05719 4.39052C6.80714 4.64057 6.66667 4.97971 6.66667 5.33333V6.66667H5.33333C4.98004 6.66772 4.64151 6.80854 4.39169 7.05836C4.14187 7.30818 4.00106 7.6467 4 8V14.6667C4.00106 15.02 4.14187 15.3585 4.39169 15.6083C4.64151 15.8581 4.98004 15.9989 5.33333 16ZM8 5.66667C8 5.57826 8.03512 5.49348 8.09763 5.43096C8.16014 5.36845 8.24493 5.33333 8.33333 5.33333H11.6667C11.7551 5.33333 11.8399 5.36845 11.9024 5.43096C11.9649 5.49348 12 5.57826 12 5.66667V6.66667H8V5.66667ZM5.33333 9.2L9.72933 11.1533C9.81455 11.1912 9.90676 11.2108 10 11.2108C10.0932 11.2108 10.1855 11.1912 10.2707 11.1533L14.6667 9.2V10.6587L10.2707 12.6127C10.1855 12.6505 10.0932 12.6701 10 12.6701C9.90676 12.6701 9.81455 12.6505 9.72933 12.6127L5.33333 10.6553V9.2Z" fill="#2C2C2C"/>
</svg>
