<svg width="14" height="14" viewBox="0 0 14 14" fill="none" xmlns="http://www.w3.org/2000/svg">
    <path fill-rule="evenodd" clip-rule="evenodd" d="M0.51883 5.96558C0.354344 6.13003 0.223863 6.32526 0.134841 6.54014C0.0458194 6.75502 0 6.98533 0 7.21792C0 7.4505 0.0458194 7.68082 0.134841 7.89569C0.223863 8.11057 0.354344 8.30581 0.51883 8.47025L5.02666 12.9781C5.19111 13.1426 5.38634 13.273 5.60122 13.3621C5.8161 13.4511 6.04641 13.4969 6.279 13.4969C6.51159 13.4969 6.7419 13.4511 6.95677 13.3621C7.17165 13.273 7.36689 13.1426 7.53133 12.9781L12.9784 7.531C13.1428 7.36653 13.2733 7.17128 13.3622 6.95641C13.4512 6.74153 13.497 6.51123 13.4969 6.27867V1.0625C13.4969 0.780707 13.385 0.510457 13.1857 0.311199C12.9865 0.111942 12.7162 3.07774e-08 12.4344 3.07774e-08H7.21754C6.98497 -4.3327e-05 6.75468 0.045724 6.5398 0.134689C6.32492 0.223654 6.12967 0.354073 5.9652 0.5185L0.51883 5.96558ZM9.23841 2.83333C8.45216 2.83333 7.83025 3.42267 7.83025 4.2415C7.83025 5.06104 8.45216 5.66667 9.23841 5.66667C10.041 5.66667 10.6636 5.06104 10.6636 4.2415C10.6636 3.42267 10.0402 2.83333 9.23841 2.83333Z" fill="black"/>
</svg>
