<svg width="16" height="18" viewBox="0 0 16 18" fill="none" xmlns="http://www.w3.org/2000/svg">
    <path d="M0 18.0001V9.42863L1.36023 5.46432C1.47539 5.09289 1.6913 4.80375 2.00797 4.59689C2.32463 4.39003 2.66289 4.28632 3.02274 4.28575C3.1379 4.28575 3.25305 4.2966 3.3682 4.31832C3.48335 4.34003 3.5985 4.37918 3.71366 4.43575L7.29777 6.00004H9.50005V7.71434H6.90913L4.5773 6.70719L3.45456 10.0715V18.0001H0ZM5.18185 15.4287V13.7144H15.5455V15.4287H5.18185ZM14.2501 12.8572C13.8902 12.8572 13.5845 12.7324 13.3329 12.4827C13.0813 12.2329 12.9552 11.9292 12.9546 11.5715C12.954 11.2138 13.0801 10.9104 13.3329 10.6612C13.5856 10.4121 13.8914 10.2869 14.2501 10.2858C14.6088 10.2846 14.9148 10.4098 15.1681 10.6612C15.4215 10.9126 15.5473 11.2161 15.5455 11.5715C15.5438 11.9269 15.418 12.2307 15.1681 12.4827C14.9182 12.7347 14.6122 12.8595 14.2501 12.8572ZM8.63641 12.8572C8.16141 12.8572 7.75492 12.6895 7.41695 12.3541C7.07898 12.0187 6.9097 11.6149 6.90913 11.1429V10.2858H5.18185V8.57149H7.77277C8.01747 8.57149 8.22273 8.65377 8.38855 8.81835C8.55436 8.98292 8.63699 9.18635 8.63641 9.42863V10.2858H10.3637V8.57149H12.091V11.1429C12.091 11.6144 11.922 12.0181 11.584 12.3541C11.246 12.6901 10.8393 12.8578 10.3637 12.8572H8.63641ZM4.3182 3.4286C3.8432 3.4286 3.43672 3.26088 3.09874 2.92545C2.76077 2.59002 2.5915 2.1863 2.59092 1.7143C2.59035 1.2423 2.75962 0.838868 3.09874 0.504009C3.43787 0.16915 3.84435 0.00114866 4.3182 5.79154e-06C4.79206 -0.00113707 5.19883 0.166864 5.53853 0.504009C5.87823 0.841154 6.04721 1.24458 6.04549 1.7143C6.04376 2.18402 5.87477 2.58774 5.53853 2.92545C5.20229 3.26317 4.79551 3.43088 4.3182 3.4286Z" fill="#424242"/>
</svg>
